<svg width="26" height="24" viewBox="0 0 26 24" fill="none" xmlns="http://www.w3.org/2000/svg">
<path d="M23.8999 2.22069C22.5385 0.795987 20.736 0.0173041 18.8124 0.0173041C16.8887 0.0173041 15.0808 0.801755 13.7193 2.22646L13.0083 2.97053L12.2862 2.21492C10.9247 0.790219 9.11131 0 7.18763 0C5.26947 0 3.46154 0.784451 2.1056 2.20339C0.744145 3.62809 -0.00548178 5.52 3.0182e-05 7.53304C3.0182e-05 9.54608 0.755169 11.4322 2.11662 12.8569L12.4681 23.6893C12.6114 23.8392 12.8043 23.92 12.9917 23.92C13.1791 23.92 13.3721 23.845 13.5154 23.695L23.8889 12.88C25.2503 11.4553 26 9.56339 26 7.55034C26.0055 5.5373 25.2614 3.64539 23.8999 2.22069ZM22.8416 11.7783L12.9917 22.0454L3.1639 11.761C2.08355 10.6305 1.48826 9.13078 1.48826 7.53304C1.48826 5.9353 2.07804 4.43561 3.15839 3.31085C4.23322 2.18608 5.66633 1.56314 7.18763 1.56314C8.71445 1.56314 10.1531 2.18608 11.2334 3.31661L12.4791 4.62019C12.7713 4.92589 13.2398 4.92589 13.5319 4.62019L14.7666 3.32815C15.8469 2.19762 17.2856 1.57467 18.8069 1.57467C20.3282 1.57467 21.7613 2.19762 22.8416 3.32238C23.922 4.45292 24.5117 5.9526 24.5117 7.55034C24.5173 9.14809 23.922 10.6478 22.8416 11.7783Z" fill="#FF7518"/>
</svg>
